<svg width="20" height="20" viewBox="0 0 20 20" fill="none" xmlns="http://www.w3.org/2000/svg">
<path d="M10 0C4.47596 0 0 4.47596 0 10C0 15.524 4.47596 20 10 20C15.524 20 20 15.524 20 10C20 4.47596 15.524 0 10 0ZM13.9712 13.0769H6.02885C4.82211 13.0769 3.84615 12.0481 3.84615 10.8077C3.84615 9.79808 4.48077 8.89423 5.44231 8.58654C5.45673 7.625 6.22115 6.85096 7.15865 6.85096C7.41346 6.85096 7.65865 6.90865 7.875 7.01442C8.50481 6.02885 9.64904 5.38942 10.8798 5.38942C12.6923 5.38942 14.125 6.79808 14.3125 8.60577C15.3558 8.77404 16.1538 9.69711 16.1538 10.8125C16.1538 12.0481 15.1779 13.0769 13.9712 13.0769Z" fill="white"/>
</svg>
