<svg width="152" height="134" viewBox="0 0 152 134" fill="none" xmlns="http://www.w3.org/2000/svg">
<g clip-path="url(#clip0)">
<path d="M26.9401 131.963C41.8187 131.963 53.8801 119.879 53.8801 104.971C53.8801 90.0634 41.8187 77.9784 26.9401 77.9784C12.0615 77.9784 0 90.0634 0 104.971C0 119.879 12.0615 131.963 26.9401 131.963Z" fill="#F5F9FF"/>
<path d="M58.8693 116.968C45.7113 116.968 32.9604 112.397 22.7891 104.034C12.6178 95.67 5.65555 84.0316 3.08853 71.1013C0.521504 58.1711 2.50858 44.749 8.71118 33.1221C14.9138 21.4952 24.9481 12.3829 37.1045 7.33771C49.2609 2.29255 62.7871 1.62673 75.3785 5.45371C87.9699 9.28069 98.8474 17.3637 106.158 28.3254C113.468 39.2872 116.758 52.4494 115.469 65.5695C114.179 78.6896 108.389 90.9558 99.0847 100.278C93.8158 105.586 87.5485 109.794 80.6455 112.659C73.7425 115.524 66.341 116.989 58.8693 116.968V116.968ZM58.8693 3.43528C27.7487 3.43528 2.43022 28.803 2.43022 59.9842C2.43022 91.1655 27.7487 116.533 58.8693 116.533C89.9899 116.533 115.308 91.1655 115.308 59.9842C115.308 28.803 89.9898 3.43528 58.8693 3.43528V3.43528Z" fill="#1F1947"/>
<path d="M88.8024 77.4193L88.796 77.4226L60.9505 92.9743L30.4588 77.6828L29.9333 77.4193L31.5158 45.6746L59.0514 25.9928L59.3553 26.1833L87.8529 44.0873L88.8024 77.4193Z" fill="#005AE1"/>
<path opacity="0.3" d="M88.8024 77.5558L61.1793 92.9743L30.9312 77.8138L57.7255 58.9837L88.8024 77.5558Z" fill="black"/>
<path opacity="0.1" d="M88.8025 77.9784L56.8735 58.9751L58.7958 25.9928L87.835 44.1588L88.8025 77.9784Z" fill="black"/>
<path d="M31.0876 55.9845L30.9312 55.7531L59.0737 34.9903L88.8024 54.4725L88.6585 54.7126L59.0825 35.3305L31.0876 55.9845Z" fill="#F2F2F2"/>
<path d="M30.0866 66.9815L29.9333 66.7601L58.1399 47.9867L58.2137 48.0278L88.8024 65.0231L88.6676 65.256L58.1528 48.3016L30.0866 66.9815Z" fill="#F2F2F2"/>
<path d="M41.049 83.9768L40.9089 83.7431L68.581 66.0019V31.9911H68.8468V66.155L41.049 83.9768Z" fill="#F2F2F2"/>
<path d="M52.0259 88.9754L51.8845 88.7436L78.5586 71.5348V37.9895H78.8246V71.6863L52.0259 88.9754Z" fill="#F2F2F2"/>
<path d="M78.6922 83.9768L46.8958 66.258L46.9003 66.1728L48.5741 32.9909L48.8464 33.0048L47.1768 66.1015L78.8247 83.7376L78.6922 83.9768Z" fill="#F2F2F2"/>
<path d="M68.7229 88.9754L37.9158 72.3929L37.9206 72.3048L39.7366 38.9892L40.0034 39.0046L38.1924 72.2319L68.847 88.7322L68.7229 88.9754Z" fill="#F2F2F2"/>
<path d="M85.8091 20.9942C91.8707 20.9942 96.7847 16.2945 96.7847 10.4971C96.7847 4.69971 91.8707 0 85.8091 0C79.7474 0 74.8335 4.69971 74.8335 10.4971C74.8335 16.2945 79.7474 20.9942 85.8091 20.9942Z" fill="#005AE1"/>
<path d="M146.479 71.7513L149.018 78.7224C149.018 78.7224 146.368 86.6893 149.018 86.9106C151.669 87.1319 152 79.2756 152 79.2756L150.564 70.8661L146.479 71.7513Z" fill="#FFB9B9"/>
<path d="M147.693 48.9571L149.571 50.8382V59.801C149.571 59.801 150.675 61.4607 150.454 61.9033C150.233 62.3459 150.012 62.3459 150.233 62.6779C150.454 63.0098 150.675 63.2311 150.454 63.4524C150.347 63.5961 150.288 63.7708 150.288 63.9504C150.288 64.1299 150.347 64.3047 150.454 64.4483C150.675 64.6696 151.117 65.0016 150.785 65.3335C150.454 65.6655 150.012 65.4442 150.454 66.6613C150.896 67.8785 151.669 68.2105 151.448 68.6531C151.227 69.0957 151.227 70.2022 151.227 70.2022L146.479 70.8661L145.485 58.3625L147.693 48.9571Z" fill="#D0CDE1"/>
<path d="M151.448 70.0916L145.926 70.3129L146.147 72.6372L151.006 71.7517L151.448 70.0916Z" fill="#1F1947"/>
<path d="M136.264 37.394L135.602 44.0332L142.338 45.029L142.835 41.2115L143.332 37.394H136.264Z" fill="#FFB9B9"/>
<path opacity="0.1" d="M136.264 37.394L135.602 44.0332L142.338 45.029L142.835 41.2115L143.332 37.394H136.264Z" fill="black"/>
<path d="M121.633 68.9851L125.387 77.0626C125.387 77.0626 126.05 80.8247 127.043 80.9354C128.037 81.046 129.031 77.0626 129.031 77.0626L127.706 74.9602L126.16 68.985L121.633 68.9851Z" fill="#FFB9B9"/>
<path d="M129.473 76.2881L126.381 81.1567C126.381 81.1567 123.399 127.52 123.841 127.188C124.283 126.856 125.718 126.745 126.27 125.86C126.823 124.975 130.246 125.86 130.246 125.86L132.234 123.758V122.098C132.234 121.766 136.209 96.4266 136.209 96.4266V102.844C136.209 102.844 134.994 126.413 136.982 126.192C138.97 125.971 143.055 124.643 143.055 124.643C143.055 124.643 148.908 80.6035 147.141 78.9437C145.374 77.2839 144.601 73.5218 144.601 73.5218L129.473 76.2881Z" fill="#1F1947"/>
<path d="M139.963 39.5517C142.891 39.5517 145.264 37.1738 145.264 34.2405C145.264 31.3071 142.891 28.9292 139.963 28.9292C137.036 28.9292 134.663 31.3071 134.663 34.2405C134.663 37.1738 137.036 39.5517 139.963 39.5517Z" fill="#FFB9B9"/>
<path d="M128.148 45.0843L127.375 44.6417C127.375 44.6417 123.951 46.9654 122.847 52.166C121.743 57.3666 120.97 58.6944 120.97 58.6944C120.97 58.6944 119.866 58.9157 120.639 59.6903C121.412 60.4649 121.411 60.3542 120.749 60.7968C120.086 61.2394 119.645 60.3542 120.086 61.2394C120.528 62.1246 121.08 61.9033 120.639 62.4566C120.197 63.0098 119.424 63.0098 119.866 63.4525C120.307 63.8951 119.424 64.8909 119.976 65.3335C120.528 65.7761 120.749 65.8868 120.749 66.6613C120.746 67.1134 120.82 67.5626 120.97 67.9892H126.712C126.712 67.9892 125.608 65.8868 125.939 65.4442C126.27 65.0016 126.381 64.559 126.16 64.3377C125.939 64.1164 125.276 64.559 125.939 64.0057C126.602 63.4524 126.822 63.7844 126.602 63.1205C126.381 62.4566 125.939 62.7885 126.381 62.4566C126.822 62.1246 127.154 62.2353 126.933 61.9033C126.712 61.5714 126.27 61.5714 126.712 61.3501C127.154 61.1288 127.485 61.3501 127.375 60.7968C127.264 60.2436 127.154 60.4649 127.375 60.2436C127.595 60.0223 129.914 52.498 129.914 52.2766C129.914 52.0553 128.148 45.0843 128.148 45.0843Z" fill="#D0CDE1"/>
<path d="M127.044 67.5466L120.086 67.9893L121.853 69.6496L126.712 69.7603L127.044 67.5466Z" fill="#1F1947"/>
<path d="M129.031 75.8454L127.595 78.501C127.595 78.501 131.902 79.0543 133.448 79.6076C134.994 80.1608 138.969 80.9354 138.969 80.9354L139.963 77.0626L129.031 75.8454Z" fill="#3F3D56"/>
<path d="M141.62 77.0626L142.835 80.7141L147.693 79.7182L147.141 76.288L141.62 77.0626Z" fill="#3F3D56"/>
<path d="M143.607 41.3222C143.607 41.3222 143.276 41.1009 142.503 41.5435C141.73 41.9861 139.19 42.2074 137.976 40.8796C136.761 39.5517 135.877 38.4452 135.546 38.6665C135.215 38.8878 134.994 41.4328 134.994 41.4328L133.89 42.318L127.375 44.6417L127.927 59.5797L128.92 63.0099C128.92 63.0099 128.148 65.6655 129.141 67.2146C130.135 68.7637 128.589 69.317 128.589 69.317C128.589 69.317 128.258 69.7596 128.479 70.8661C128.7 71.9726 128.258 76.0667 128.258 76.0667C128.258 76.0667 137.644 80.2715 147.472 76.62L146.368 72.4152L145.816 63.0099C145.816 63.0099 146.368 61.4607 146.258 60.7968C146.147 60.1329 149.57 50.8382 149.57 50.8382C149.57 50.8382 149.018 46.1908 146.147 45.195C143.276 44.1991 142.834 43.2032 142.834 43.2032C142.834 43.2032 144.159 41.7648 143.607 41.3222Z" fill="#D0CDE1"/>
<path d="M134.626 34.9209C134.626 34.9209 134.076 34.0936 134.287 33.2026C134.414 32.6967 134.464 32.1747 134.436 31.654C134.672 30.8822 134.97 30.1303 135.325 29.4054C135.769 28.5993 135.558 28.2599 136.955 28.0053C138.352 27.7508 137.781 25.9264 141.464 27.8993C141.589 28.0731 141.761 28.2062 141.961 28.2817C142.161 28.3572 142.378 28.3718 142.586 28.3235C143.348 28.175 143.624 29.2357 143.624 29.2357C143.624 29.2357 144.132 28.9387 144.322 29.363C144.513 29.7872 145.871 29.1083 145.871 31.9721C145.871 34.836 144.325 37.3941 144.325 37.3941C144.325 37.3941 144.439 32.5768 141.919 32.0889C139.4 31.601 136.69 30.1797 136.034 32.004C135.68 33.028 135.207 34.0069 134.626 34.9209Z" fill="#2F2E41"/>
<path d="M144.38 36.0666C144.655 36.0666 144.877 35.7693 144.877 35.4025C144.877 35.0358 144.655 34.7384 144.38 34.7384C144.106 34.7384 143.884 35.0358 143.884 35.4025C143.884 35.7693 144.106 36.0666 144.38 36.0666Z" fill="#FFB9B9"/>
<path d="M141.565 124.251L142.341 126.585C142.341 126.585 142.341 128.92 143.118 130.087C143.894 131.254 144.671 133.784 141.565 133.978C138.458 134.173 137.099 133.005 137.099 133.005C137.099 133.005 137.681 131.449 137.099 130.865C136.516 130.282 137.099 129.114 137.099 129.114L137.681 124.445L141.565 124.251Z" fill="#1F1947"/>
<path d="M126.436 124.251L125.66 126.585C125.66 126.585 125.66 128.92 124.883 130.087C124.106 131.254 123.33 133.784 126.436 133.978C129.543 134.173 130.902 133.005 130.902 133.005C130.902 133.005 130.319 131.449 130.902 130.865C131.484 130.282 130.902 129.114 130.902 129.114L130.319 124.445L126.436 124.251Z" fill="#1F1947"/>
</g>
<defs>
<clipPath id="clip0">
<rect width="152" height="134" fill="white"/>
</clipPath>
</defs>
</svg>
