<svg width="19" height="20" viewBox="0 0 19 20" fill="none" xmlns="http://www.w3.org/2000/svg">
<path d="M17.951 0H1.04896C0.470052 0 0 0.494792 0 1.10417V18.8958C0 19.5052 0.470052 20 1.04896 20H9.5V12.0833H7.22891V9.16667H9.5V7.01042C9.5 4.42708 11.2021 3.02083 13.394 3.02083C14.443 3.02083 15.5711 3.10417 15.8333 3.14062V5.83854H14.0867C12.8943 5.83854 12.6667 6.43229 12.6667 7.30729V9.16667H15.5068L15.1357 12.0833H12.6667V20H17.951C18.5299 20 19 19.5052 19 18.8958V1.10417C19 0.494792 18.5299 0 17.951 0Z" fill="#A7ABB3"/>
</svg>
