<svg width="20" height="20" viewBox="0 0 20 20" fill="none" xmlns="http://www.w3.org/2000/svg">
<path d="M19.3654 6.3509C18.9519 5.19447 18.3894 4.22287 17.7788 3.6257C17.6538 3.50247 17.4904 3.43612 17.3125 3.43612C17.1346 3.43612 16.9712 3.50247 16.8462 3.6257C16.5913 3.87689 16.5913 4.28923 16.8462 4.54516C17.3221 5.01437 17.7885 5.84378 18.1346 6.82485C18.4856 7.82962 18.6827 8.89126 18.6827 9.81546C18.6827 9.95764 18.6779 10.1757 18.6731 10.2941C18.6635 10.4695 18.726 10.6306 18.8462 10.7586C18.9663 10.8866 19.125 10.9624 19.3029 10.9671H19.3317C19.6827 10.9671 19.9712 10.697 19.9904 10.3463C19.9952 10.1994 20 9.96238 20 9.81072C20 8.73012 19.774 7.49785 19.3654 6.3509ZM4.56731 2.96691C4.70673 2.96691 4.83654 2.92426 4.95192 2.84369C6.38942 1.82944 8.13462 1.29388 10 1.29388C11.9615 1.29388 13.851 1.99532 15.4663 3.32237C15.5865 3.41716 15.7356 3.47404 15.8894 3.47404C16.0865 3.47404 16.2692 3.38873 16.3942 3.2418C16.625 2.96691 16.5865 2.55932 16.3125 2.32708C14.4519 0.805711 12.274 0 10 0C7.85577 0 5.84615 0.620872 4.18269 1.79152C4.03846 1.89105 3.94712 2.04271 3.91827 2.21334C3.88942 2.38396 3.92788 2.55458 4.03365 2.69676C4.15385 2.86738 4.35577 2.96691 4.56731 2.96691ZM1.31731 9.81072C1.31731 7.73957 2.07692 5.74425 3.45673 4.18496C3.57212 4.05225 3.62981 3.88637 3.61538 3.71575C3.60577 3.54513 3.52404 3.38399 3.38942 3.27024C3.26923 3.16597 3.11538 3.1091 2.95673 3.1091C2.76442 3.1091 2.58654 3.18967 2.46154 3.33185C0.875 5.12811 0 7.42676 0 9.81072C0 11.3653 0.283654 12.5975 0.740385 14.0857C0.826923 14.3606 1.07692 14.5455 1.37019 14.5455C1.43269 14.5455 1.5 14.536 1.5625 14.517C1.73077 14.4649 1.87019 14.3559 1.95192 14.2042C2.03365 14.0526 2.05288 13.8772 2 13.7113C1.57692 12.3369 1.31731 11.2089 1.31731 9.81072Z" fill="white"/>
<path d="M14.8212 3.87769C13.5111 2.72773 11.9082 2.12122 10.1805 2.12122C7.86255 2.12122 5.79415 2.9849 4.34963 4.55214C2.97229 6.0466 2.29563 8.03113 2.4444 10.137C2.55478 11.7236 2.73234 12.597 2.89071 13.3685C3.09707 14.3923 3.26024 15.2026 3.13546 17.4491C3.11627 17.7742 3.31303 18.0654 3.61537 18.1576C3.67296 18.177 3.72575 18.1818 3.78814 18.1818C4.13367 18.1818 4.42162 17.9052 4.44561 17.5559C4.58478 15.1104 4.40722 14.2225 4.18166 13.0968C4.03289 12.3641 3.86492 11.5344 3.75934 10.0351C3.63457 8.30285 4.19126 6.67253 5.31424 5.44979C6.50441 4.15427 8.23688 3.441 10.1805 3.441C11.5866 3.441 12.892 3.93592 13.9574 4.87238C15.0276 5.80885 15.8386 7.1723 16.3089 8.80747C16.856 10.7144 17.0048 13.1404 16.7456 15.8188C16.712 16.1827 16.976 16.5078 17.3359 16.5466C17.3551 16.5466 17.3791 16.5515 17.3983 16.5515C17.739 16.5515 18.0174 16.2943 18.051 15.9498C18.3293 13.1016 18.1614 10.5057 17.5663 8.43871C17.0336 6.56578 16.0834 4.98398 14.8212 3.87769Z" fill="white"/>
<path d="M15.7019 10.4955C15.4123 8.70043 14.725 7.20218 13.7088 6.15867C12.6876 5.10558 11.3818 4.54553 9.93357 4.54553C9.00082 4.54553 8.08279 4.74179 7.27768 5.11994C7.09604 5.2061 6.96349 5.36407 6.91439 5.55554C6.8653 5.75179 6.90948 5.95284 7.03712 6.1108C7.16476 6.27355 7.35622 6.3645 7.56732 6.3645C7.67042 6.3645 7.76369 6.34056 7.85697 6.30227C8.47553 6.01506 9.19228 5.86189 9.92866 5.86189C11.0283 5.86189 12.0151 6.30227 12.7907 7.13516C13.5811 7.9872 14.131 9.22218 14.3666 10.7061C14.5973 12.123 14.7102 13.267 14.7152 14.2052C14.725 16.1055 14.4795 17.6852 14.4795 17.7043C14.4501 17.8766 14.4942 18.0489 14.6022 18.1925C14.7102 18.3361 14.8624 18.4271 15.0392 18.4558C15.0735 18.4606 15.1079 18.4654 15.1423 18.4654C15.4761 18.4654 15.7559 18.2308 15.805 17.9101C15.8148 17.8431 16.0701 16.2252 16.0603 14.2004C16.0603 13.1808 15.9425 11.9746 15.7019 10.4955ZM6.46275 7.43194C6.65911 7.15431 6.60511 6.78094 6.34001 6.56075C6.21728 6.46023 6.0651 6.40758 5.908 6.40758C5.68709 6.40758 5.4809 6.51288 5.35326 6.68999C4.6316 7.71914 4.38614 9.04029 4.64633 10.5098C5.08325 12.9654 5.47599 15.8279 5.1078 18.4079C5.08325 18.5898 5.13234 18.7765 5.25017 18.9201C5.36308 19.0637 5.52999 19.1499 5.71163 19.1643C5.73127 19.1643 5.75091 19.169 5.77054 19.169C6.10437 19.169 6.38911 18.9249 6.43329 18.6042C6.83585 15.8423 6.42347 12.8505 5.96691 10.2848C5.76563 9.1456 5.93255 8.18346 6.46275 7.43194ZM12.9527 16.2635H12.9282C12.5551 16.2778 12.2655 16.5794 12.2802 16.9432C12.2802 16.9528 12.3096 17.8 12.1525 18.6042C12.0887 18.9345 12.2802 19.26 12.5993 19.3605C12.668 19.3797 12.7367 19.394 12.8104 19.394C13.1344 19.394 13.4093 19.169 13.4682 18.8627C13.6548 17.9006 13.6204 16.9384 13.6204 16.8953C13.6106 16.5363 13.316 16.2635 12.9527 16.2635Z" fill="white"/>
<path d="M11.8637 7.72446C11.3213 7.23224 10.6432 6.96973 9.90217 6.96973C8.94319 6.96973 8.12466 7.31193 7.59674 7.93072C7.19474 8.40418 6.77337 9.28079 7.06881 10.7434C7.66454 13.6732 7.79531 16.4437 7.46112 18.9751C7.41269 19.3267 7.67423 19.6501 8.03264 19.6923C8.0617 19.697 8.09076 19.697 8.11497 19.697C8.44917 19.697 8.73008 19.4579 8.77367 19.1345C9.12723 16.4624 8.99162 13.556 8.37167 10.4902C8.21668 9.72144 8.30387 9.11672 8.61868 8.7417C8.88991 8.42293 9.34519 8.24949 9.89733 8.24949C11.1082 8.24949 11.5973 9.54331 11.7523 10.0965C12.0865 11.3012 12.2803 13.0498 12.3093 15.1452C12.3142 15.4921 12.6096 15.778 12.9729 15.778H12.9825C13.1569 15.7733 13.3216 15.7077 13.4475 15.5858C13.5686 15.464 13.6364 15.2999 13.6364 15.1311C13.6025 12.9279 13.3942 11.0762 13.031 9.76832C12.7937 8.90108 12.3965 8.21198 11.8637 7.72446Z" fill="white"/>
<path d="M10.4855 9.50033C10.3985 9.2547 10.1914 9.09094 9.9594 9.09094C9.88484 9.09094 9.81029 9.11021 9.74401 9.13911C9.45406 9.27878 9.31737 9.66409 9.43749 10.0012C9.71087 10.7719 9.92627 12.2264 10.0215 13.9892C10.1209 15.7664 10.092 17.693 9.93869 19.2679C9.92212 19.4413 9.96355 19.6147 10.0588 19.7544C10.1541 19.8941 10.2866 19.976 10.4399 19.9952C10.4606 20 10.4813 20 10.502 20C10.792 20 11.0322 19.7496 11.0654 19.4124C11.2269 17.7026 11.2559 15.7231 11.1482 13.8351C11.0447 11.9422 10.8086 10.401 10.4855 9.50033Z" fill="white"/>
</svg>
