<svg width="152" height="134" viewBox="0 0 152 134" fill="none" xmlns="http://www.w3.org/2000/svg">
<path opacity="0.4" d="M71.3871 124.046L135.774 0H7L71.3871 124.046L135.774 0H7L71.3871 124.046Z" fill="url(#paint0_linear)"/>
<path d="M80.1564 109.645H62.6179V127.311H80.1564V109.645Z" fill="#1F1947"/>
<path d="M72.3405 70.6642C54.0502 70.6642 39.1699 55.6756 39.1699 37.2523C39.1699 18.8289 54.0502 3.84039 72.3405 3.84039C90.6309 3.84039 105.511 18.8289 105.511 37.2523C105.511 55.6756 90.6309 70.6642 72.3405 70.6642ZM72.3405 4.8005C54.5757 4.8005 40.1231 19.3583 40.1231 37.2523C40.1231 55.1463 54.5757 69.7041 72.3405 69.7041C90.1051 69.7041 104.558 55.1463 104.558 37.2523C104.558 19.3583 90.1051 4.8005 72.3405 4.8005V4.8005Z" fill="#1F1947"/>
<path d="M72.3404 62.5993C58.465 62.5993 47.1765 51.2287 47.1765 37.2523C47.1765 23.2759 58.465 11.9054 72.3404 11.9054C86.2158 11.9054 97.5042 23.2759 97.5042 37.2523C97.5042 51.2287 86.2158 62.5993 72.3404 62.5993ZM72.3404 12.4814C67.4765 12.4814 62.7219 13.9342 58.6778 16.6561C54.6337 19.3779 51.4817 23.2466 49.6204 27.7729C47.7591 32.2992 47.2721 37.2798 48.2209 42.0849C49.1698 46.89 51.512 51.3037 54.9512 54.768C58.3905 58.2322 62.7723 60.5914 67.5427 61.5472C72.3131 62.503 77.2577 62.0125 81.7513 60.1376C86.2449 58.2628 90.0856 55.0878 92.7878 51.0143C95.49 46.9407 96.9323 42.1515 96.9323 37.2523C96.925 30.6849 94.3317 24.3887 89.7214 19.7449C85.1111 15.101 78.8603 12.4889 72.3404 12.4814Z" fill="#1F1947"/>
<path d="M72.3404 45.3173C70.7569 45.3173 69.2088 44.8443 67.8922 43.9581C66.5755 43.0719 65.5492 41.8123 64.9432 40.3386C64.3372 38.865 64.1787 37.2434 64.4876 35.6789C64.7965 34.1145 65.5591 32.6775 66.6789 31.5495C67.7986 30.4216 69.2253 29.6535 70.7784 29.3423C72.3316 29.0312 73.9414 29.1909 75.4045 29.8013C76.8675 30.4117 78.118 31.4454 78.9978 32.7717C79.8775 34.098 80.3471 35.6572 80.3471 37.2523C80.3447 39.3905 79.5004 41.4405 77.9994 42.9524C76.4983 44.4644 74.4632 45.3148 72.3404 45.3173ZM72.3404 29.5714C70.8323 29.5714 69.358 30.0219 68.104 30.8659C66.85 31.7099 65.8726 32.9095 65.2955 34.313C64.7183 35.7165 64.5673 37.2608 64.8615 38.7508C65.1558 40.2407 65.882 41.6093 66.9484 42.6835C68.0149 43.7577 69.3736 44.4893 70.8528 44.7856C72.332 45.082 73.8652 44.9299 75.2585 44.3485C76.6519 43.7672 77.8428 42.7827 78.6807 41.5196C79.5186 40.2565 79.9659 38.7715 79.9659 37.2523C79.9636 35.2159 79.1594 33.2636 77.7299 31.8236C76.3004 30.3837 74.3621 29.5737 72.3404 29.5714V29.5714Z" fill="#3F3D56"/>
<path d="M70.434 27.6512C69.4075 27.6512 68.3912 27.8548 67.4429 28.2504C66.4946 28.6461 65.633 29.226 64.9072 29.9571C64.1814 30.6881 63.6057 31.5561 63.2129 32.5112C62.8201 33.4664 62.6179 34.4902 62.6179 35.5241H70.434V27.6512Z" fill="#005AE1"/>
<path opacity="0.3" d="M62.6179 38.9805C62.6179 41.0685 63.4414 43.071 64.9072 44.5475C66.373 46.0239 68.361 46.8534 70.434 46.8534V38.9805H62.6179Z" fill="#005AE1"/>
<path opacity="0.3" d="M73.6748 27.6512V35.5241H81.4909C81.4909 34.4902 81.2887 33.4664 80.8959 32.5112C80.5031 31.5561 79.9274 30.6881 79.2016 29.9571C78.4758 29.226 77.6142 28.6461 76.6659 28.2504C75.7176 27.8548 74.7012 27.6512 73.6748 27.6512V27.6512Z" fill="#005AE1"/>
<path d="M73.6748 46.0853C75.7478 46.0853 77.7358 45.2559 79.2016 43.7794C80.6674 42.3029 81.4909 40.3004 81.4909 38.2124H73.6748V46.0853Z" fill="#005AE1"/>
<path d="M80.2339 27.8285L79.8884 27.6661L83.9431 18.9142H110.182V19.2983H84.1859L80.2339 27.8285Z" fill="#1F1947"/>
<path d="M116.568 10.5612H101.698V11.7133H116.568V10.5612Z" fill="#1F1947"/>
<path d="M116.568 13.0576H101.698V14.2097H116.568V13.0576Z" fill="#1F1947"/>
<path d="M116.568 15.5538H101.698V16.7059H116.568V15.5538Z" fill="#1F1947"/>
<path d="M79.7751 73.9286H64.9055V75.0808H79.7751V73.9286Z" fill="#1F1947"/>
<path d="M79.7751 76.4249H64.9055V77.5771H79.7751V76.4249Z" fill="#1F1947"/>
<path d="M79.7751 78.9211H64.9055V80.0733H79.7751V78.9211Z" fill="#1F1947"/>
<path d="M86.0661 82.1855H85.6849V52.2849L81.3289 45.2266L81.6529 45.0238L86.0661 52.1751V82.1855Z" fill="#1F1947"/>
<path d="M58.996 82.1855H58.6147V52.1751L63.0281 45.0238L63.3518 45.2266L58.996 52.2849V82.1855Z" fill="#1F1947"/>
<path d="M132.555 90.5892C139.035 90.5892 144.288 89.2504 144.288 87.599C144.288 85.9475 139.035 84.6088 132.555 84.6088C126.075 84.6088 120.822 85.9475 120.822 87.599C120.822 89.2504 126.075 90.5892 132.555 90.5892Z" fill="#1F1947"/>
<path d="M127.961 47.8004C127.961 47.8004 127.819 53.4961 126.689 54.208C125.558 54.92 128.668 57.0559 128.668 57.0559L133.333 56.2015L136.301 52.4993C136.301 52.4993 134.181 49.9363 134.888 47.8004H127.961Z" fill="#FFB6B6"/>
<path opacity="0.1" d="M127.961 47.8004C127.961 47.8004 127.819 53.4961 126.689 54.208C125.558 54.92 128.668 57.0559 128.668 57.0559L133.333 56.2015L136.301 52.4993C136.301 52.4993 134.181 49.9363 134.888 47.8004H127.961Z" fill="black"/>
<path d="M121.6 53.3537C121.6 53.3537 119.196 54.3504 119.055 57.7678C118.914 61.1853 119.055 71.1527 119.055 71.1527L123.155 70.8679L121.6 53.3537Z" fill="#F0F0F0"/>
<path d="M139.693 89.2176L139.413 89.2554L144.502 127.488L144.782 127.45L139.693 89.2176Z" fill="#1F1947"/>
<path d="M135.028 89.7937L134.747 89.8183L137.998 127.552L138.28 127.528L135.028 89.7937Z" fill="#1F1947"/>
<path d="M126.114 83.9541L122.176 127.457L122.457 127.483L126.395 83.98L126.114 83.9541Z" fill="#1F1947"/>
<path d="M129.77 83.2414L129.488 83.2516L131.071 127.616L131.353 127.606L129.77 83.2414Z" fill="#2F2E41"/>
<path d="M117.641 77.4179C117.641 77.4179 101.384 78.5571 104.07 83.968C106.756 89.3789 119.762 98.492 119.762 98.492C119.762 98.492 122.165 99.0616 122.589 99.204C123.013 99.3464 129.516 94.9322 129.516 94.9322C129.516 94.9322 125.558 92.5115 123.72 92.0844C121.882 91.6572 116.652 87.1006 116.652 87.1006L131.354 83.3984L122.73 75.994L117.641 77.4179Z" fill="#1F1947"/>
<path d="M130.647 80.9778C130.647 80.9778 121.317 94.272 123.155 99.5146C124.992 104.757 123.72 122.129 123.72 122.129C123.72 122.129 130.647 124.407 130.647 122.129C130.647 119.851 132.626 103.76 130.647 98.3496C130.647 98.3496 131.071 94.9322 132.202 94.3626C133.333 93.7931 137.291 88.5245 137.291 88.5245C137.291 88.5245 141.532 86.5311 140.966 84.68C140.401 82.8289 130.647 80.9778 130.647 80.9778Z" fill="#1F1947"/>
<path d="M137.149 44.8102C137.149 45.9367 136.818 47.0379 136.196 47.9745C135.575 48.9112 134.692 49.6412 133.659 50.0723C132.626 50.5034 131.489 50.6162 130.392 50.3964C129.295 50.1767 128.287 49.6342 127.497 48.8376C126.706 48.0411 126.167 47.0262 125.949 45.9214C125.731 44.8165 125.843 43.6713 126.271 42.6305C126.699 41.5898 127.423 40.7002 128.353 40.0744C129.283 39.4485 130.377 39.1145 131.495 39.1145C132.238 39.1142 132.973 39.2613 133.659 39.5474C134.345 39.8335 134.969 40.253 135.494 40.782C136.019 41.311 136.436 41.939 136.72 42.6302C137.004 43.3213 137.15 44.0621 137.149 44.8102V44.8102Z" fill="#FFB6B6"/>
<path d="M135.17 50.5059C135.17 50.5059 143.652 54.0657 142.38 58.6223C141.108 63.1788 138.422 82.8289 134.322 82.8289C130.223 82.8289 121.599 80.5506 121.034 79.6963C120.469 78.8419 123.154 61.4701 123.154 61.4701C123.154 61.4701 126.402 50.8784 127.606 51.7601C127.606 51.7601 126.83 56.344 130.929 55.2049C135.029 54.0657 135.17 50.5059 135.17 50.5059Z" fill="#F0F0F0"/>
<path d="M127.775 50.5059C127.775 50.5059 120.61 51.5027 120.893 53.069L120.327 59.0494L122.589 71.1527L122.306 75.1397L115.379 77.5604L123.578 79.981C123.578 79.981 126.971 63.606 126.406 60.4733C125.84 57.3407 127.775 50.5059 127.775 50.5059Z" fill="#3F3D56"/>
<path d="M134.951 50.0015C134.951 50.0015 142.663 54.4928 143.228 55.9168C143.794 57.3407 143.228 71.0103 143.228 71.0103C143.228 71.0103 144.218 83.8256 141.39 87.1006C141.39 87.1006 142.38 85.3919 137.149 85.3919C131.919 85.3919 129.374 84.3952 129.233 84.2528C129.092 84.1104 126.406 84.2528 126.406 84.2528C126.406 84.2528 125.416 63.8907 128.668 60.1885C131.919 56.4863 135.438 52.2026 134.951 50.0015Z" fill="#3F3D56"/>
<path d="M119.903 79.9809V81.6897C119.903 81.6897 114.249 86.9582 116.51 88.3821C118.772 89.806 123.154 83.256 123.154 83.256L123.687 79.45L119.903 79.9809Z" fill="#FFB6B6"/>
<path opacity="0.1" d="M119.903 79.9809V81.6897C119.903 81.6897 114.249 86.9582 116.51 88.3821C118.772 89.806 123.154 83.256 123.154 83.256L123.687 79.45L119.903 79.9809Z" fill="black"/>
<path d="M122.165 98.0649L123.72 100.343C123.72 100.343 118.348 108.602 120.751 109.456C123.155 110.311 133.615 100.058 133.474 99.204C133.333 98.3497 128.385 94.9323 128.385 94.9323L122.165 98.0649Z" fill="#1F1947"/>
<path d="M124.144 120.99L122.872 126.686C122.872 126.686 117.924 133.236 120.186 133.805C122.448 134.375 127.537 133.663 128.244 132.096C128.95 130.53 129.799 128.394 130.929 126.686C132.06 124.977 129.94 120.99 129.94 120.99H124.144Z" fill="#1F1947"/>
<path d="M120.044 68.5896L119.055 71.1527L119.479 80.9778C119.479 80.9778 123.013 79.5538 124.144 80.9778L123.154 71.1527L121.599 68.5896H120.044Z" fill="#F0F0F0"/>
<path d="M125.275 80.9778L122.589 81.8321C122.589 81.8321 112.128 85.2495 116.793 87.6702C121.458 90.0909 124.144 86.1039 124.144 86.1039L125.982 84.68L125.275 80.9778Z" fill="#FFB6B6"/>
<path d="M141.108 56.3439C141.108 56.3439 137.291 58.195 136.725 63.1787C136.16 68.1624 135.453 74.7124 135.453 74.7124L128.385 79.4114C128.385 79.4114 123.551 79.2182 124.272 81.0235C124.992 82.8288 125.134 86.6734 126.406 86.1038C127.678 85.5342 129.516 82.1168 131.354 81.9744C133.191 81.832 140.825 78.8418 141.673 75.4244C142.521 72.007 145.773 60.4733 144.359 58.7646C142.945 57.0559 142.239 55.6319 141.108 56.3439Z" fill="#F0F0F0"/>
<path d="M126.143 41.1796C126.143 41.1796 123.881 41.145 123.388 42.0253C122.895 42.9055 123.057 43.5437 123.725 43.5598C124.394 43.5759 127.508 41.7279 127.508 41.7279L126.143 41.1796Z" fill="#3F3D56"/>
<path opacity="0.1" d="M126.143 41.1796C126.143 41.1796 123.881 41.145 123.388 42.0253C122.895 42.9055 123.057 43.5437 123.725 43.5598C124.394 43.5759 127.508 41.7279 127.508 41.7279L126.143 41.1796Z" fill="black"/>
<path d="M136.033 44.0936L134.485 45.444C134.485 45.444 133.016 46.8162 130.901 44.7037C128.786 42.5911 125.795 40.9135 124.563 41.4191L127.704 40.0871L130.757 40.002L134.225 41.473L136.033 44.0936Z" fill="#3F3D56"/>
<path d="M137.089 45.6157C136.487 44.9312 135.839 44.2903 135.147 43.6979C133.813 42.5446 131.928 41.2119 129.923 40.7452C129.923 40.7452 127.911 40.1021 126.479 40.7218L129.247 37.6761C129.247 37.6761 130.744 36.82 131.526 37.037C131.526 37.037 134.157 37.607 134.901 38.2729C134.922 38.2915 134.941 38.3104 134.959 38.3288C135.413 38.3946 135.829 38.6215 136.132 38.9687C136.809 39.7482 137.875 41.2763 137.644 42.9727C137.31 45.4228 137.089 45.6157 137.089 45.6157Z" fill="#3F3D56"/>
<path opacity="0.1" d="M135.666 44.4431C129.967 39.606 126.728 40.6579 126.696 40.6691L126.602 40.4005C126.738 40.3521 130.008 39.2685 135.848 44.2253L135.666 44.4431Z" fill="black"/>
<path d="M135.552 38.6162C135.708 38.3437 135.506 37.9316 135.1 37.6957C134.694 37.4598 134.239 37.4894 134.083 37.7618C133.926 38.0342 134.129 38.4463 134.534 38.6822C134.94 38.9182 135.396 38.8886 135.552 38.6162Z" fill="#3F3D56"/>
<path d="M136.333 45.5859C136.564 45.5518 136.707 45.2087 136.65 44.8196C136.594 44.4306 136.36 44.1428 136.128 44.1769C135.897 44.211 135.754 44.5541 135.811 44.9431C135.867 45.3322 136.101 45.62 136.333 45.5859Z" fill="#FFB6B6"/>
<path d="M131.397 48.7289C131.939 47.8176 131.105 47.426 131.105 47.426C131.105 47.426 129.196 46.7254 128.487 46.4634C127.776 46.2029 127.445 47.2338 127.445 47.2338C127.316 47.295 126.542 46.6998 125.997 46.1473C126.206 47.0186 126.617 47.8279 127.195 48.5094C127.773 49.1909 128.502 49.7254 129.324 50.0695C130.146 50.4136 131.037 50.5575 131.924 50.4896C132.811 50.4217 133.67 50.1439 134.431 49.6787L135.432 47.2423C134.051 48.1703 132.705 48.6795 131.397 48.7289ZM130.531 49.0721C130.361 49.2429 130.15 49.3666 129.919 49.4312C129.687 49.4958 129.443 49.4991 129.211 49.4409L129.254 49.2016C129.254 49.2016 130.074 49.1604 129.728 48.9482C129.344 48.7623 128.943 48.6149 128.531 48.5082C128.531 48.5082 128.269 48.4128 128.533 48.8514L128.68 49.0336L128.574 49.2073C128.574 49.2073 127.805 48.7545 127.877 47.9699C127.877 47.9699 127.797 47.2566 128.731 47.5997C129.667 47.9443 130.341 48.1907 130.341 48.1907C130.341 48.1907 131.126 48.4797 130.531 49.0721V49.0721Z" fill="#3F3D56"/>
<defs>
<linearGradient id="paint0_linear" x1="71.3871" y1="124.046" x2="71.3871" y2="0" gradientUnits="userSpaceOnUse">
<stop stop-color="#E2ECFC"/>
<stop offset="0.4735" stop-color="#F0F5FE" stop-opacity="0.7"/>
</linearGradient>
</defs>
</svg>
