<svg width="152" height="134" viewBox="0 0 152 134" fill="none" xmlns="http://www.w3.org/2000/svg">
<g clip-path="url(#clip0)">
<path d="M26.7136 74.3156H26.3899V115.071H26.7136V74.3156Z" fill="#1F1947"/>
<path d="M36.5877 68.0444H36.2639V121.342H36.5877V68.0444Z" fill="#1F1947"/>
<path d="M46.4617 66.269H46.1379V123.118H46.4617V66.269Z" fill="#1F1947"/>
<path d="M56.3357 68.0444H56.012V121.342H56.3357V68.0444Z" fill="#1F1947"/>
<path d="M66.2097 74.3156H65.886V115.071H66.2097V74.3156Z" fill="#1F1947"/>
<path d="M71.2438 81.0497H21.356V81.3735H71.2438V81.0497Z" fill="#1F1947"/>
<path d="M74.6269 94.5309H17.9729V94.8547H74.6269V94.5309Z" fill="#1F1947"/>
<path d="M71.2438 108.012H21.356V108.336H71.2438V108.012Z" fill="#1F1947"/>
<path d="M123.673 81.3745C139.318 81.3745 152 68.6486 152 52.9503C152 37.252 139.318 24.5261 123.673 24.5261C108.028 24.5261 95.3459 37.252 95.3459 52.9503C95.3459 68.6486 108.028 81.3745 123.673 81.3745Z" fill="#005AE1"/>
<path d="M75.7598 47.3532H75.436V88.1086H75.7598V47.3532Z" fill="#1F1947"/>
<path d="M85.6338 41.082H85.3101V94.3799H85.6338V41.082Z" fill="#1F1947"/>
<path d="M95.5078 39.3067H95.1841V96.1551H95.5078V39.3067Z" fill="#1F1947"/>
<path d="M105.382 41.082H105.058V94.3799H105.382V41.082Z" fill="#1F1947"/>
<path d="M115.256 47.3532H114.932V88.1086H115.256V47.3532Z" fill="#3F3D56"/>
<path d="M120.29 54.0873H70.4021V54.4111H120.29V54.0873Z" fill="#1F1947"/>
<path d="M123.673 67.5685H67.019V67.8923H123.673V67.5685Z" fill="#3F3D56"/>
<path d="M120.29 81.0497H70.4021V81.3735H120.29V81.0497Z" fill="#1F1947"/>
<path d="M117.241 5.37268H117.241C109.449 5.37268 103.132 12.4071 103.132 21.0845V32.1092H106.511L108.467 28.0244L107.978 32.1092H129.698L131.476 28.3958L131.032 32.1092H133.477V23.4528C133.477 13.4674 126.208 5.37268 117.241 5.37268Z" fill="#2F2E41"/>
<path d="M110.431 25.1877C110.431 25.1877 114.835 35.4984 108.963 37.5606L114.835 57.0037L124.816 56.4145L127.459 49.9335L126.872 40.2119L125.991 33.7309C125.991 33.7309 119.826 35.2038 120.413 24.3039L110.431 25.1877Z" fill="#FFB8B8"/>
<path d="M108.082 37.266C108.082 37.266 98.3938 36.3822 99.2746 43.4524C100.155 50.5226 101.036 51.9956 101.036 51.9956L101.917 62.6009L96.6323 65.8415H91.6414C91.6414 65.8415 76.3749 69.3766 84.0081 73.2063C91.6414 77.036 94.2836 70.2603 94.2836 70.2603C94.2836 70.2603 108.376 70.2603 109.256 67.9036C110.137 65.5469 108.082 37.266 108.082 37.266Z" fill="#FFB8B8"/>
<path d="M126.872 34.3201C126.872 34.3201 135.973 31.0795 136.56 38.1498C137.147 45.22 137.147 45.8092 137.147 45.8092L138.909 55.8253C138.909 55.8253 142.432 64.6631 142.432 67.3145C142.432 69.9658 145.074 78.2144 145.074 78.2144C145.074 78.2144 148.597 89.7035 144.78 89.4089C140.964 89.1143 140.377 77.036 140.377 77.036L132.45 61.128L130.101 51.4065L126.872 34.3201Z" fill="#FFB8B8"/>
<path d="M109.55 36.0876H107.201L106.908 48.4605C106.908 48.4605 103.091 53.7632 107.788 58.4766L108.963 66.1361L130.394 65.2523L131.862 57.2983C131.862 57.2983 134.798 50.8172 130.688 44.9254L126.871 32.8471H124.816C124.816 32.8471 129.576 50.4573 119.532 50.8172C111.311 51.1118 109.55 36.0876 109.55 36.0876Z" fill="white"/>
<path d="M143.643 109.243C137.023 116.716 128.963 122.765 119.949 127.024C119.945 112.282 120.118 100.308 120.118 100.308C120.118 100.308 118.872 112.961 117.289 128.214C108.245 132.045 98.5262 134.013 88.7095 134C88.5347 134 88.3599 134 88.1851 133.997C96.2623 104.874 108.045 71.4959 108.37 70.5749C108.373 70.5685 108.375 70.562 108.377 70.5554L109.087 68.1775L109.39 67.1656L109.707 66.105L110.138 64.6627L129.22 64.0747L129.755 65.2783L131.569 69.3762C131.727 69.4223 131.878 69.493 132.014 69.5858C135.449 71.8483 139.779 89.1173 143.643 109.243Z" fill="#1F1947"/>
<path d="M131.275 61.7172L108.082 62.601C108.082 62.601 107.023 70.555 108.082 70.555C108.376 70.555 132.45 72.6171 132.156 69.082C131.862 65.5469 131.275 61.7172 131.275 61.7172Z" fill="#3F3D56"/>
<path d="M114.968 28.5617C119.524 28.5617 123.217 24.8558 123.217 20.2843C123.217 15.7129 119.524 12.007 114.968 12.007C110.412 12.007 106.719 15.7129 106.719 20.2843C106.719 24.8558 110.412 28.5617 114.968 28.5617Z" fill="#FFB8B8"/>
<path d="M121.252 9.70077C119.836 7.87044 117.746 6.71112 115.414 6.71112H115.137C109.796 6.71112 105.466 11.5605 105.466 17.5426V17.5427H107.256L107.545 15.3353L107.969 17.5427H118.582L119.472 15.6751L119.249 17.5427H121.337C122.312 22.3982 120.912 27.2537 117.137 32.1092H120.694L122.473 28.3742L122.028 32.1092H128.809L130.143 23.5187C130.143 17.0851 126.417 11.6296 121.252 9.70077Z" fill="#2F2E41"/>
<path d="M123.202 10.6053C126.12 10.6053 128.486 8.23125 128.486 5.30267C128.486 2.37409 126.12 0 123.202 0C120.283 0 117.917 2.37409 117.917 5.30267C117.917 8.23125 120.283 10.6053 123.202 10.6053Z" fill="#2F2E41"/>
<path d="M84.5958 70.3773C86.0632 70.3773 87.2527 69.1837 87.2527 67.7113C87.2527 66.2389 86.0632 65.0453 84.5958 65.0453C83.1285 65.0453 81.939 66.2389 81.939 67.7113C81.939 69.1837 83.1285 70.3773 84.5958 70.3773Z" fill="#005AE1"/>
<path d="M84.5958 67.7114H26.6765V44.2509H74.8541L84.5958 67.7114Z" fill="#F5F9FF"/>
<path d="M84.8604 67.8891H19.5916V39.0966H73.0242L73.0693 39.2066L84.8604 67.8891ZM19.9458 67.5336H84.3311L72.7871 39.4521H19.9458V67.5336Z" fill="#1F1947"/>
<path d="M65.1123 47.9832H36.2412V50.6491H65.1123V47.9832Z" fill="#1F1947"/>
<path d="M65.1123 53.4928H36.2412V56.1588H65.1123V53.4928Z" fill="#1F1947"/>
<path d="M65.1123 59.0025H36.2412V61.6685H65.1123V59.0025Z" fill="#1F1947"/>
<path d="M1.94242 95.2368C1.55825 95.2368 1.1827 95.1225 0.863272 94.9083C0.543842 94.6942 0.294877 94.3898 0.14786 94.0336C0.000842541 93.6775 -0.0376251 93.2856 0.0373237 92.9075C0.112272 92.5294 0.297271 92.1821 0.568924 91.9095C0.840577 91.6369 1.18668 91.4513 1.56348 91.3761C1.94027 91.3009 2.33083 91.3395 2.68576 91.487C3.04069 91.6345 3.34405 91.8844 3.55749 92.2049C3.77093 92.5254 3.88485 92.9022 3.88485 93.2877C3.88426 93.8045 3.67942 94.2999 3.31527 94.6653C2.95113 95.0307 2.45741 95.2362 1.94242 95.2368V95.2368ZM1.94242 91.6635C1.62228 91.6635 1.30932 91.7588 1.04313 91.9372C0.77694 92.1157 0.569469 92.3694 0.446955 92.6662C0.32444 92.963 0.292384 93.2895 0.354842 93.6046C0.417299 93.9197 0.571464 94.2091 0.797841 94.4362C1.02422 94.6634 1.31264 94.8181 1.62663 94.8808C1.94063 94.9434 2.26609 94.9113 2.56187 94.7883C2.85765 94.6654 3.11045 94.4572 3.28831 94.1901C3.46618 93.923 3.56111 93.609 3.56111 93.2877C3.56063 92.8571 3.38994 92.4443 3.08648 92.1398C2.78302 91.8353 2.37158 91.664 1.94242 91.6635V91.6635Z" fill="#1F1947"/>
<path d="M70.2231 21.8681H67.0276V18.6617H70.2231V21.8681ZM67.2734 21.6215H69.9773V18.9084H67.2734V21.6215Z" fill="#1F1947"/>
<path d="M9.78846 22.5309L7.60889 20.1861L9.94566 17.999L12.1252 20.3438L9.78846 22.5309ZM7.95631 20.1982L9.80056 22.1823L11.7778 20.3317L9.93356 18.3476L7.95631 20.1982Z" fill="#1F1947"/>
<path d="M120.023 108.998H143.597L148.58 134H119.5L120.023 108.998Z" fill="#1F1947"/>
<path d="M118.543 116L116.71 134H89.0742L118.543 116Z" fill="#1F1947"/>
</g>
<defs>
<clipPath id="clip0">
<rect width="152" height="134" fill="white"/>
</clipPath>
</defs>
</svg>
