<svg width="20" height="20" viewBox="0 0 20 20" fill="none" xmlns="http://www.w3.org/2000/svg">
<path d="M14.2697 8.17789C13.6447 8.17789 13.039 8.17789 12.4717 8.375C10.0392 6.30288 3.61184 0.831731 3.12149 0.322115C2.89555 0.0865385 2.64556 0 2.40039 0C1.99177 0 1.59757 0.25 1.37643 0.461538C1.04473 0.778846 -0.209986 2.13462 0.0303804 2.38462C0.751479 3.125 0.943772 3.27404 1.24183 3.57692C1.68891 4.03365 2.6023 3.52885 2.97246 3.6875C3.33782 3.84615 3.41474 4.01442 3.47242 4.28846C3.53011 4.5625 3.33301 5.04808 3.3282 5.42788C3.3234 5.82692 3.49165 6.04327 3.77048 6.34135C3.99161 6.58173 4.19833 6.75481 4.52042 6.75962C4.95308 6.76923 5.52515 6.14423 5.98185 6.61058C6.43854 7.07692 5.68379 7.75 5.74148 8.24519C5.79917 8.74039 6.48662 9.34135 6.77986 9.40385C7.07311 9.46635 7.82786 8.84135 8.25571 8.9375C8.39993 8.97115 8.73644 9.26442 8.78452 9.48558C8.83259 9.70673 8.45281 10.6875 8.50088 10.9087C8.55857 11.1779 8.8422 11.4904 9.00085 11.7452C8.67875 12.4904 8.54896 13.1683 8.54896 14.0385C8.54896 17.3317 11.1161 20 14.2793 20C17.4425 20 20 17.3317 20 14.0385C20 10.7452 17.4329 8.17789 14.2697 8.17789ZM15.385 16.9231C14.5341 16.9231 13.8466 16.2356 13.8466 15.3846C13.8466 14.5337 14.5341 13.8462 15.385 13.8462C16.2359 13.8462 16.9233 14.5337 16.9233 15.3846C16.9233 16.2356 16.2359 16.9231 15.385 16.9231Z" fill="white"/>
</svg>
