<svg width="19" height="20" viewBox="0 0 19 20" fill="none" xmlns="http://www.w3.org/2000/svg">
<path d="M17.4806 0H1.62334C0.757228 0 0 0.656421 0 1.5577V18.286C0 19.1925 0.757228 20 1.62334 20H17.4756C18.3467 20 19 19.1873 19 18.286V1.5577C19.0049 0.656421 18.3467 0 17.4806 0ZM5.88955 16.671H3.16749V7.76244H5.88955V16.671ZM4.62255 6.40792H4.60275C3.7317 6.40792 3.16749 5.72545 3.16749 4.87106C3.16749 4.00104 3.74654 3.3342 4.6374 3.3342C5.52825 3.3342 6.07267 3.99583 6.09246 4.87106C6.09246 5.72545 5.52825 6.40792 4.62255 6.40792ZM15.8374 16.671H13.1154V11.7999C13.1154 10.633 12.7194 9.83589 11.7346 9.83589C10.9823 9.83589 10.5368 10.3725 10.3389 10.8935C10.2646 11.081 10.2448 11.3363 10.2448 11.5968V16.671H7.52278V7.76244H10.2448V9.00234C10.6408 8.40844 11.2594 7.55405 12.6996 7.55405C14.4863 7.55405 15.8374 8.79396 15.8374 11.4665V16.671Z" fill="#A7ABB3"/>
</svg>
