<svg width="28" height="28" viewBox="0 0 28 28" fill="none" xmlns="http://www.w3.org/2000/svg">
<circle cx="14" cy="14" r="14" fill="#005AE1"/>
<path d="M14.7332 9.92051C6.7575 12.1199 23.5338 13.4142 18.101 16.4065C18.101 16.4065 13.0789 20.1613 16.3105 17.5594C19.5422 14.9574 6.05917 15.1745 8.3123 12.2378L10.0277 10.1934L14.7332 9.92051Z" fill="white"/>
<path d="M18.0994 16.3627C23.5322 13.3704 6.88795 12.0694 14.8636 9.87001L13.0191 9.87001C14.125 9.21996 12.0046 9.87001 12.0046 9.87001L13.0191 9.87001C12.6636 10.079 11.9747 10.4223 10.7747 10.9648C5.84198 13.1947 20.7247 14.1422 17.493 16.7442C14.2614 19.3462 18.0994 16.3627 18.0994 16.3627Z" fill="white"/>
<path fill-rule="evenodd" clip-rule="evenodd" d="M22.5994 6.52567C13.528 6.23343 8.73526 8.43655 8.06032 12.8039C9.94487 10.0182 14.1296 8.19706 19.8772 8.84219C21.2172 8.23945 21.9224 7.69991 22.5994 6.52567Z" fill="white"/>
<path d="M17.7173 9.7827C12.9787 9.65145 9.75503 11.104 8.06126 12.8035C8.85723 9.99174 13.2351 8.05879 21.2769 8.06643C20.1574 8.79765 19.3921 9.1706 17.7173 9.7827Z" fill="white"/>
<path d="M22.6003 6.52557C21.785 6.49924 21.5482 6.50098 20.7108 6.5012C21.0653 7.7713 18.4143 8.86694 16.8376 9.78171L17.7204 9.78832C19.9926 8.89705 21.7436 8.20826 22.6003 6.52557Z" fill="white"/>
<path fill-rule="evenodd" clip-rule="evenodd" d="M5.30078 21.5679C13.9764 21.8601 18.5589 19.6403 19.2044 15.2738C17.4021 18.059 13.401 19.8969 7.90417 19.2519C6.62266 19.8545 5.94825 20.394 5.30078 21.5679Z" fill="white"/>
<path d="M9.96964 18.3062C14.5011 18.4376 17.5843 16.975 19.204 15.2736C18.4428 18.0885 14.2559 20.032 6.56567 20.0244C7.63617 19.2924 8.36806 18.919 9.96964 18.3062Z" fill="white"/>
<path d="M5.30005 21.568C6.0797 21.5943 6.30607 21.5926 7.10677 21.5924C6.76783 20.3223 9.30263 19.2266 10.8102 18.3119L9.96611 18.3052C7.79349 19.1965 6.11921 19.8853 5.30005 21.568Z" fill="white"/>
</svg>
