<svg width="97" height="28" viewBox="0 0 97 28" fill="none" xmlns="http://www.w3.org/2000/svg">
<path d="M46.1548 10.6378H49.1023C49.0597 8.04545 46.929 6.25568 43.6903 6.25568C40.5014 6.25568 38.1648 8.01705 38.179 10.6591C38.1719 12.804 39.6847 14.0327 42.142 14.6222L43.7259 15.0199C45.3097 15.4034 46.1903 15.858 46.1974 16.8381C46.1903 17.9034 45.1818 18.6278 43.6193 18.6278C42.0213 18.6278 40.8707 17.8892 40.7713 16.4332H37.7955C37.8736 19.5795 40.125 21.206 43.6548 21.206C47.206 21.206 49.294 19.5085 49.3011 16.8452C49.294 14.4233 47.4688 13.1378 44.9403 12.5696L43.6335 12.2571C42.3693 11.9659 41.3111 11.4972 41.3324 10.4531C41.3324 9.51562 42.1634 8.8267 43.669 8.8267C45.1392 8.8267 46.0412 9.49432 46.1548 10.6378ZM53.4648 21H56.6609L58.5359 14.1392H58.6708L60.5458 21H63.7489L66.7106 10.0909H63.6566L61.9947 17.3778H61.9023L60.1126 10.0909H57.1083L55.3469 17.4205H55.2475L53.5572 10.0909H50.4961L53.4648 21ZM68.3246 21H71.3501V10.0909H68.3246V21ZM69.8445 8.68466C70.7464 8.68466 71.4851 7.99574 71.4851 7.15057C71.4851 6.3125 70.7464 5.62358 69.8445 5.62358C68.9496 5.62358 68.2109 6.3125 68.2109 7.15057C68.2109 7.99574 68.9496 8.68466 69.8445 8.68466ZM82.8505 13.2017C82.5806 11.1918 80.9613 9.94886 78.2056 9.94886C75.4144 9.94886 73.5749 11.2415 73.582 13.3438C73.5749 14.9773 74.6048 16.0355 76.7354 16.4616L78.6246 16.8381C79.5763 17.0298 80.0096 17.3778 80.0238 17.9247C80.0096 18.571 79.3065 19.0327 78.2482 19.0327C77.1687 19.0327 76.4513 18.571 76.2667 17.6832L73.2908 17.8395C73.5749 19.9276 75.3505 21.2131 78.2411 21.2131C81.0678 21.2131 83.092 19.7713 83.0991 17.6193C83.092 16.0426 82.0621 15.098 79.9457 14.6648L77.9712 14.267C76.9556 14.0469 76.5792 13.6989 76.5863 13.1733C76.5792 12.5199 77.3178 12.0938 78.2553 12.0938C79.3065 12.0938 79.9315 12.669 80.0806 13.3722L82.8505 13.2017ZM88.0298 14.6932C88.0369 13.2869 88.8963 12.4631 90.1321 12.4631C91.3608 12.4631 92.0852 13.2514 92.0781 14.5938V21H95.1037V14.054C95.1108 11.4972 93.6051 9.94886 91.3324 9.94886C89.6776 9.94886 88.5696 10.7301 88.0724 12.0156H87.9446V6.45455H85.0043V21H88.0298V14.6932Z" fill="#005AE1"/>
<circle cx="14" cy="14" r="14" fill="#005AE1"/>
<path d="M14.733 9.92048C6.75731 12.1198 23.5337 13.4142 18.1008 16.4065C18.1008 16.4065 13.0787 20.1613 16.3104 17.5593C19.542 14.9573 6.05898 15.1744 8.31212 12.2377L10.0275 10.1934L14.733 9.92048Z" fill="white"/>
<path d="M18.0993 16.3627C23.5321 13.3704 6.88783 12.0694 14.8635 9.87001L13.019 9.87001C14.1249 9.21996 12.0045 9.87001 12.0045 9.87001L13.019 9.87001C12.6635 10.079 11.9745 10.4223 10.7746 10.9648C5.84186 13.1947 20.7246 14.1422 17.4929 16.7442C14.2612 19.3462 18.0993 16.3627 18.0993 16.3627Z" fill="white"/>
<path fill-rule="evenodd" clip-rule="evenodd" d="M22.5994 6.52574C13.528 6.23349 8.73526 8.43661 8.06032 12.804C9.94487 10.0182 14.1296 8.19712 19.8772 8.84225C21.2172 8.23951 21.9224 7.69997 22.5994 6.52574Z" fill="white"/>
<path d="M17.7174 9.78274C12.9788 9.65148 9.75509 11.104 8.06132 12.8035C8.85729 9.99177 13.2352 8.05882 21.2769 8.06646C20.1575 8.79768 19.3921 9.17063 17.7174 9.78274Z" fill="white"/>
<path d="M22.6003 6.52557C21.785 6.49924 21.5482 6.50098 20.7108 6.5012C21.0653 7.7713 18.4143 8.86694 16.8376 9.78171L17.7204 9.78832C19.9926 8.89705 21.7436 8.20826 22.6003 6.52557Z" fill="white"/>
<path fill-rule="evenodd" clip-rule="evenodd" d="M5.30072 21.568C13.9763 21.8602 18.5589 19.6403 19.2044 15.2739C17.402 18.059 13.401 19.897 7.90411 19.252C6.62259 19.8546 5.94818 20.394 5.30072 21.568Z" fill="white"/>
<path d="M9.96964 18.3062C14.5011 18.4376 17.5843 16.975 19.204 15.2736C18.4428 18.0885 14.2559 20.032 6.56567 20.0244C7.63617 19.2924 8.36806 18.919 9.96964 18.3062Z" fill="white"/>
<path d="M5.30011 21.568C6.07976 21.5944 6.30613 21.5926 7.10683 21.5924C6.76789 20.3223 9.30269 19.2267 10.8103 18.3119L9.96617 18.3053C7.79355 19.1965 6.11928 19.8853 5.30011 21.568Z" fill="white"/>
</svg>
