<svg width="23" height="16" viewBox="0 0 23 16" fill="none" xmlns="http://www.w3.org/2000/svg">
<path d="M22.6137 1.58841L16.7163 7.64176C16.6725 7.68594 16.6725 7.75222 16.7163 7.79641L20.8434 12.226C21.1229 12.5076 21.1229 12.9605 20.8434 13.2422C20.7063 13.3803 20.52 13.4521 20.3391 13.4521C20.1583 13.4521 19.9719 13.3803 19.8349 13.2422L15.7243 8.82923C15.6805 8.78505 15.6092 8.78505 15.5654 8.82923L14.5624 9.85653C13.7238 10.7126 12.6113 11.1876 11.4164 11.1931C10.2052 11.1987 9.05423 10.685 8.20471 9.81787L7.2401 8.82923C7.19625 8.78505 7.125 8.78505 7.08115 8.82923L2.97058 13.2422C2.83356 13.3803 2.64721 13.4521 2.46635 13.4521C2.28548 13.4521 2.09914 13.3803 1.96212 13.2422C1.6826 12.9605 1.6826 12.5076 1.96212 12.226L6.08914 7.79641C6.1275 7.75222 6.1275 7.68594 6.08914 7.64176L0.186346 1.58841C0.115096 1.51661 0 1.56632 0 1.66574V13.778C0 14.75 0.789231 15.5454 1.75385 15.5454H21.0462C22.0108 15.5454 22.8 14.75 22.8 13.778V1.66574C22.8 1.56632 22.6794 1.52213 22.6137 1.58841V1.58841Z" fill="#CCCCCC"/>
<path d="M11.3972 9.84546C12.2191 9.84546 12.991 9.53359 13.5686 8.96361L22.2818 0.376396C21.9764 0.139804 21.5988 0 21.1823 0H1.61776C1.20125 0 0.81807 0.139804 0.518188 0.376396L9.23142 8.96361C9.80342 9.52821 10.5753 9.84546 11.3972 9.84546V9.84546Z" fill="#CCCCCC"/>
</svg>
