<svg width="131" height="39" viewBox="0 0 131 39" xmlns="http://www.w3.org/2000/svg">
<symbol id="pattern-button">
<circle cx="125.473" cy="5.59143" r="1.25"/>
<circle cx="129.473" cy="5.59143" r="1.25"/>
<circle cx="125.473" cy="1.59143" r="1.25"/>
<circle cx="129.473" cy="1.59143" r="1.25"/>
<circle cx="125.473" cy="9.59143" r="1.25"/>
<circle cx="129.473" cy="9.59143" r="1.25"/>
<circle cx="125.473" cy="13.5914" r="1.25"/>
<circle cx="129.473" cy="13.5914" r="1.25"/>
<circle cx="125.473" cy="17.5914" r="1.25"/>
<circle cx="129.473" cy="17.5914" r="1.25"/>
<circle cx="125.473" cy="21.5914" r="1.25"/>
<circle cx="129.473" cy="21.5914" r="1.25"/>
<circle cx="125.473" cy="25.5914" r="1.25"/>
<circle cx="129.473" cy="25.5914" r="1.25"/>
<circle cx="125.473" cy="29.5914" r="1.25"/>
<circle cx="129.473" cy="29.5914" r="1.25"/>
<circle cx="5.47308" cy="33.5914" r="1.25"/>
<circle cx="9.47308" cy="33.5914" r="1.25"/>
<circle cx="13.4731" cy="33.5914" r="1.25"/>
<circle cx="17.4731" cy="33.5914" r="1.25"/>
<circle cx="21.4731" cy="33.5914" r="1.25"/>
<circle cx="25.4731" cy="33.5914" r="1.25"/>
<circle cx="29.4731" cy="33.5914" r="1.25"/>
<circle cx="33.4731" cy="33.5914" r="1.25"/>
<circle cx="37.4731" cy="33.5914" r="1.25"/>
<circle cx="41.4731" cy="33.5914" r="1.25"/>
<circle cx="45.4731" cy="33.5914" r="1.25"/>
<circle cx="49.4731" cy="33.5914" r="1.25"/>
<circle cx="53.4731" cy="33.5914" r="1.25"/>
<circle cx="57.4731" cy="33.5914" r="1.25"/>
<circle cx="61.4731" cy="33.5914" r="1.25"/>
<circle cx="65.4731" cy="33.5914" r="1.25"/>
<circle cx="69.4731" cy="33.5914" r="1.25"/>
<circle cx="73.4731" cy="33.5914" r="1.25"/>
<circle cx="77.4731" cy="33.5914" r="1.25"/>
<circle cx="81.4731" cy="33.5914" r="1.25"/>
<circle cx="85.4731" cy="33.5914" r="1.25"/>
<circle cx="89.4731" cy="33.5914" r="1.25"/>
<circle cx="93.4731" cy="33.5914" r="1.25"/>
<circle cx="97.4731" cy="33.5914" r="1.25"/>
<circle cx="101.473" cy="33.5914" r="1.25"/>
<circle cx="105.473" cy="33.5914" r="1.25"/>
<circle cx="109.473" cy="33.5914" r="1.25"/>
<circle cx="113.473" cy="33.5914" r="1.25"/>
<circle cx="117.473" cy="33.5914" r="1.25"/>
<circle cx="121.473" cy="33.5914" r="1.25"/>
<circle cx="125.473" cy="33.5914" r="1.25"/>
<circle cx="129.473" cy="33.5914" r="1.25"/>
<circle cx="5.47308" cy="37.5914" r="1.25"/>
<circle cx="1.47302" cy="33.5914" r="1.25"/>
<circle cx="1.47308" cy="37.5914" r="1.25"/>
<circle cx="9.47308" cy="37.5914" r="1.25"/>
<circle cx="13.4731" cy="37.5914" r="1.25"/>
<circle cx="17.4731" cy="37.5914" r="1.25"/>
<circle cx="21.4731" cy="37.5914" r="1.25"/>
<circle cx="25.4731" cy="37.5914" r="1.25"/>
<circle cx="29.4731" cy="37.5914" r="1.25"/>
<circle cx="33.4731" cy="37.5914" r="1.25"/>
<circle cx="37.4731" cy="37.5914" r="1.25"/>
<circle cx="41.4731" cy="37.5914" r="1.25"/>
<circle cx="45.4731" cy="37.5914" r="1.25"/>
<circle cx="49.4731" cy="37.5914" r="1.25"/>
<circle cx="53.4731" cy="37.5914" r="1.25"/>
<circle cx="57.4731" cy="37.5914" r="1.25"/>
<circle cx="61.4731" cy="37.5914" r="1.25"/>
<circle cx="65.4731" cy="37.5914" r="1.25"/>
<circle cx="69.4731" cy="37.5914" r="1.25"/>
<circle cx="73.4731" cy="37.5914" r="1.25"/>
<circle cx="77.4731" cy="37.5914" r="1.25"/>
<circle cx="81.4731" cy="37.5914" r="1.25"/>
<circle cx="85.4731" cy="37.5914" r="1.25"/>
<circle cx="89.4731" cy="37.5914" r="1.25"/>
<circle cx="93.4731" cy="37.5914" r="1.25"/>
<circle cx="97.4731" cy="37.5914" r="1.25"/>
<circle cx="101.473" cy="37.5914" r="1.25"/>
<circle cx="105.473" cy="37.5914" r="1.25"/>
<circle cx="109.473" cy="37.5914" r="1.25"/>
<circle cx="113.473" cy="37.5914" r="1.25"/>
<circle cx="117.473" cy="37.5914" r="1.25"/>
<circle cx="121.473" cy="37.5914" r="1.25"/>
<circle cx="125.473" cy="37.5914" r="1.25"/>
<circle cx="129.473" cy="37.5914" r="1.25"/>
</symbol>
</svg>
