<svg width="24" height="20" viewBox="0 0 24 20" fill="none" xmlns="http://www.w3.org/2000/svg">
<path d="M24 2.36979C23.1151 2.77083 22.1691 3.04167 21.1723 3.16667C22.1894 2.54167 22.9727 1.55208 23.3388 0.375C22.3878 0.953125 21.335 1.375 20.2111 1.59896C19.3109 0.614583 18.0292 0 16.6154 0C13.8945 0 11.6923 2.26042 11.6923 5.04687C11.6923 5.44271 11.733 5.82812 11.8195 6.19792C7.72537 5.98958 4.09409 3.97917 1.66815 0.921875C1.24603 1.66667 1.00191 2.53646 1.00191 3.45833C1.00191 5.20833 1.87667 6.75521 3.19898 7.66146C2.38525 7.64062 1.62238 7.41146 0.961221 7.03125V7.09375C0.961221 9.54167 2.65989 11.5781 4.91291 12.0417C4.50095 12.1562 4.06357 12.2188 3.61602 12.2188C3.3007 12.2188 2.99046 12.1875 2.6904 12.125C3.31596 14.1302 5.13668 15.5885 7.29307 15.6302C5.60966 16.9844 3.48379 17.7917 1.17483 17.7917C0.778131 17.7917 0.386523 17.7656 0 17.7188C2.17165 19.1667 4.76033 20 7.53719 20C16.6052 20 21.5588 12.3073 21.5588 5.63542C21.5588 5.41667 21.5537 5.19792 21.5435 4.98437C22.5048 4.27083 23.3388 3.38542 24 2.36979Z" fill="#A7ABB3"/>
</svg>
